# xmcd
#
# Track frame offsets:
#	150
#	20756
#	38232
#	53615
#	70284
#	87833
#	105695
#	125078
#	144782
#	161956
#	178791
#	194943
#	211870
#	228847
#	240210
#	253923
#	266805
#	280644
#	296812
#
# Disc length: 4151 seconds
# Revision: 2
# Processed by: cddbd v1.5.2PL0 Copyright (c) Steve Scherf et al.
# Submitted via: dBpowerAMP V12.0
#
DISCID=20103513
DTITLE=Various Artist - Ride Through The Country: Deluxe Edition
DYEAR=2018
DGENRE=Country Rap
TTITLE0=Colt Ford feat. John Michael Montgomery - Ride Through the Country
TTITLE1=Colt Ford - Mr. Goodtime
TTITLE2=Colt Ford - No Trash ’n My Trailer
TTITLE3=Colt Ford feat. Jamey Johnson - Cold Beer
TTITLE4=Colt Ford feat. Lindsey Hager - Never Thought
TTITLE5=Colt Ford feat. Attitude - Saddle Up
TTITLE6=Colt Ford feat. Sunny Ledfurd - Waffle House
TTITLE7=Colt Ford - Twisted
TTITLE8=Colt Ford - Tailgate
TTITLE9=Colt Ford feat. Brantley Gilbert - Dirt Road Anthem
TTITLE10=Colt Ford - Good God O’Mighty
TTITLE11=Colt Ford - Like Me
TTITLE12=Colt Ford feat. Bonecrusher - Gangsta of Love
TTITLE13=Colt Ford - I Can’t Sing
TTITLE14=Colt Ford - Buck ’Em
TTITLE15=Colt Ford - Huntin’ The World
TTITLE16=Colt Ford - Big White Redneck
TTITLE17=Colt Ford feat. Andy Griggs - Day In The Life
TTITLE18=Colt Ford - Left Ya’ll In The Dust (The NASCAR Song)
EXTD=
EXTT0=
EXTT1=
EXTT2=
EXTT3=
EXTT4=
EXTT5=
EXTT6=
EXTT7=
EXTT8=
EXTT9=
EXTT10=
EXTT11=
EXTT12=
EXTT13=
EXTT14=
EXTT15=
EXTT16=
EXTT17=
EXTT18=
PLAYORDER=
